<mxfile host="app.diagrams.net" modified="2022-01-28T02:46:50.257Z" agent="5.0 (Windows NT 10.0; Win64; x64) AppleWebKit/537.36 (KHTML, like Gecko) Chrome/97.0.4692.99 Safari/537.36 Edg/97.0.1072.69" etag="CHg4LiPr2UjpV4CLpG68" version="16.4.11" type="github">
  <diagram id="9GuviwEDhUSm3kEprOBz" name="Page-1">
    <mxGraphModel dx="1038" dy="547" grid="1" gridSize="10" guides="1" tooltips="1" connect="1" arrows="1" fold="1" page="1" pageScale="1" pageWidth="827" pageHeight="1169" math="0" shadow="0">
      <root>
        <mxCell id="0" />
        <mxCell id="1" parent="0" />
        <mxCell id="sDyi0cnwHgnVt_nQVKdm-2" style="edgeStyle=orthogonalEdgeStyle;rounded=0;orthogonalLoop=1;jettySize=auto;html=1;entryX=0.5;entryY=0;entryDx=0;entryDy=0;" edge="1" parent="1" source="sDyi0cnwHgnVt_nQVKdm-1" target="sDyi0cnwHgnVt_nQVKdm-3">
          <mxGeometry relative="1" as="geometry">
            <mxPoint x="160" y="270" as="targetPoint" />
          </mxGeometry>
        </mxCell>
        <mxCell id="sDyi0cnwHgnVt_nQVKdm-4" value="将配置中类注册为Bean定义" style="edgeLabel;html=1;align=center;verticalAlign=middle;resizable=0;points=[];" vertex="1" connectable="0" parent="sDyi0cnwHgnVt_nQVKdm-2">
          <mxGeometry x="0.4579" y="1" relative="1" as="geometry">
            <mxPoint as="offset" />
          </mxGeometry>
        </mxCell>
        <mxCell id="sDyi0cnwHgnVt_nQVKdm-7" value="" style="edgeStyle=orthogonalEdgeStyle;rounded=0;orthogonalLoop=1;jettySize=auto;html=1;" edge="1" parent="1" source="sDyi0cnwHgnVt_nQVKdm-1" target="sDyi0cnwHgnVt_nQVKdm-6">
          <mxGeometry relative="1" as="geometry" />
        </mxCell>
        <mxCell id="sDyi0cnwHgnVt_nQVKdm-8" value="this()" style="edgeLabel;html=1;align=center;verticalAlign=middle;resizable=0;points=[];" vertex="1" connectable="0" parent="sDyi0cnwHgnVt_nQVKdm-7">
          <mxGeometry x="0.0723" y="3" relative="1" as="geometry">
            <mxPoint as="offset" />
          </mxGeometry>
        </mxCell>
        <mxCell id="sDyi0cnwHgnVt_nQVKdm-1" value="&#xa;&#xa;&lt;span style=&quot;color: rgb(50, 50, 50); font-size: 13px; font-style: normal; font-weight: 400; letter-spacing: normal; text-align: center; text-indent: 0px; text-transform: none; word-spacing: 0px; background-color: rgba(255, 255, 255, 0.01); display: inline; float: none;&quot;&gt;AnnotationConfigApplicationContext&lt;/span&gt;&#xa;&#xa;" style="rounded=0;whiteSpace=wrap;html=1;fillColor=#FF9999;" vertex="1" parent="1">
          <mxGeometry x="160" y="110" width="270" height="50" as="geometry" />
        </mxCell>
        <mxCell id="sDyi0cnwHgnVt_nQVKdm-3" value="&lt;span style=&quot;color: rgb(50 , 50 , 50) ; font-size: 13px ; background-color: rgba(255 , 255 , 255 , 0.01)&quot;&gt;register(componentClasses);&lt;/span&gt;" style="rounded=0;whiteSpace=wrap;html=1;fillColor=#FFFFFF;" vertex="1" parent="1">
          <mxGeometry x="20" y="270" width="190" height="60" as="geometry" />
        </mxCell>
        <mxCell id="sDyi0cnwHgnVt_nQVKdm-10" value="" style="edgeStyle=orthogonalEdgeStyle;rounded=0;orthogonalLoop=1;jettySize=auto;html=1;" edge="1" parent="1" source="sDyi0cnwHgnVt_nQVKdm-6" target="sDyi0cnwHgnVt_nQVKdm-9">
          <mxGeometry relative="1" as="geometry">
            <Array as="points">
              <mxPoint x="630" y="300" />
              <mxPoint x="630" y="220" />
            </Array>
          </mxGeometry>
        </mxCell>
        <mxCell id="sDyi0cnwHgnVt_nQVKdm-12" value="" style="edgeStyle=orthogonalEdgeStyle;rounded=0;orthogonalLoop=1;jettySize=auto;html=1;" edge="1" parent="1" source="sDyi0cnwHgnVt_nQVKdm-6" target="sDyi0cnwHgnVt_nQVKdm-11">
          <mxGeometry relative="1" as="geometry" />
        </mxCell>
        <mxCell id="sDyi0cnwHgnVt_nQVKdm-14" value="" style="edgeStyle=orthogonalEdgeStyle;rounded=0;orthogonalLoop=1;jettySize=auto;html=1;" edge="1" parent="1" source="sDyi0cnwHgnVt_nQVKdm-6" target="sDyi0cnwHgnVt_nQVKdm-13">
          <mxGeometry relative="1" as="geometry">
            <Array as="points">
              <mxPoint x="630" y="300" />
              <mxPoint x="630" y="375" />
            </Array>
          </mxGeometry>
        </mxCell>
        <mxCell id="sDyi0cnwHgnVt_nQVKdm-6" value="&lt;span style=&quot;color: rgb(50 , 50 , 50) ; font-size: 13px ; background-color: rgba(255 , 255 , 255 , 0.01)&quot;&gt;BeanDefinitionReader&lt;/span&gt;" style="whiteSpace=wrap;html=1;fillColor=#FFFFFF;rounded=0;" vertex="1" parent="1">
          <mxGeometry x="414" y="270" width="156" height="60" as="geometry" />
        </mxCell>
        <mxCell id="sDyi0cnwHgnVt_nQVKdm-9" value="&#xa;&#xa;&lt;span style=&quot;color: rgb(50, 50, 50); font-size: 13px; font-style: normal; font-weight: 400; letter-spacing: normal; text-align: center; text-indent: 0px; text-transform: none; word-spacing: 0px; background-color: rgba(255, 255, 255, 0.01); display: inline; float: none;&quot;&gt;ConfigurationClassPostProcessor&lt;/span&gt;&#xa;&#xa;" style="whiteSpace=wrap;html=1;fillColor=#FFFFFF;rounded=0;" vertex="1" parent="1">
          <mxGeometry x="695" y="190" width="240" height="60" as="geometry" />
        </mxCell>
        <mxCell id="sDyi0cnwHgnVt_nQVKdm-11" value="&lt;span style=&quot;color: rgb(50 , 50 , 50) ; font-size: 13px ; background-color: rgba(255 , 255 , 255 , 0.01)&quot;&gt;AutowiredAnnotationBeanPostProcessor&lt;/span&gt;" style="whiteSpace=wrap;html=1;fillColor=#FFFFFF;rounded=0;" vertex="1" parent="1">
          <mxGeometry x="690" y="275" width="250" height="50" as="geometry" />
        </mxCell>
        <mxCell id="sDyi0cnwHgnVt_nQVKdm-13" value="&lt;span style=&quot;color: rgb(50 , 50 , 50) ; font-size: 13px ; background-color: rgba(255 , 255 , 255 , 0.01)&quot;&gt;EventListenerMethodProcessor&lt;/span&gt;" style="whiteSpace=wrap;html=1;fillColor=#FFFFFF;rounded=0;" vertex="1" parent="1">
          <mxGeometry x="690" y="350" width="240" height="50" as="geometry" />
        </mxCell>
      </root>
    </mxGraphModel>
  </diagram>
</mxfile>
